#N canvas 840 23 840 1005 12;
#X obj 40 538 adc~;
#X obj 334 276 tabwrite~ array1;
#X obj 278 192 metro 100;
#X obj 165 176 *~ 10;
#X obj 273 148 bng 15 250 50 1 empty empty empty 17 7 0 10 -262144
-1 -1;
#X obj 277 341 threshold~ 1 3000 0.1 1000;
#X obj 128 389 print;
#X obj 79 272 threshold~ 3 3000 0.4 2000;
#X obj 283 472 print;
#X obj 443 201 lop~;
#X obj 480 267 threshold~ 1 3000 0.1 1000;
#X msg 526 313 Low sound detected.;
#X obj 557 358 print;
#X msg 75 319 Loud sound detected.;
#X msg 282 402 Moderate sound detected.;
#X obj 398 142 *~ 10;
#X obj -35 106 sigmund~ .npeaks 16 peaks;
#X obj -94 183 route 0;
#X obj -95 243 unpack f f f f;
#X floatatom -98 296 5 0 0 0 - - -;
#X floatatom -54 295 5 0 0 0 - - -;
#X obj -8 155 send peaks;
#X text -168 315 frequency Hz;
#X text -63 315 amplitude;
#X obj -83 414 bng 15 250 50 0 empty empty empty 17 7 0 10 -262144
-1 -1;
#X obj -95 369 threshold~ 20 3000 0.4 2000;
#X obj 150 18 adc~;
#X floatatom 40 643 5 0 0 0 - - -;
#X floatatom 111 678 5 0 0 0 - - -;
#X obj 172 64 *~;
#X obj 245 23 tgl 15 0 empty empty empty 17 7 0 10 -262144 -1 -1 0
1;
#X obj 40 608 fiddle~;
#X obj 103 752 vsl 15 128 5 8 0 0 empty empty Pitch 0 -9 0 10 -262144
-1 -1 11331 1;
#X obj 172 752 vsl 15 128 30 100 0 0 empty empty Volumn 0 -9 0 10 -262144
-1 -1 3595 1;
#X obj 42 723 / 10;
#X obj 40 573 *~;
#X obj 149 538 tgl 15 0 empty empty empty 17 7 0 10 -262144 -1 -1 1
1;
#X connect 0 0 35 0;
#X connect 2 0 1 0;
#X connect 3 0 1 0;
#X connect 3 0 7 0;
#X connect 3 0 5 0;
#X connect 4 0 2 0;
#X connect 5 0 14 0;
#X connect 7 0 13 0;
#X connect 9 0 10 0;
#X connect 10 0 11 0;
#X connect 11 0 12 0;
#X connect 13 0 6 0;
#X connect 14 0 8 0;
#X connect 15 0 9 0;
#X connect 16 0 17 0;
#X connect 16 0 21 0;
#X connect 17 0 18 0;
#X connect 18 0 19 0;
#X connect 18 1 20 0;
#X connect 19 0 25 0;
#X connect 25 0 24 0;
#X connect 26 0 29 0;
#X connect 27 0 34 0;
#X connect 28 0 33 0;
#X connect 29 0 16 0;
#X connect 29 0 3 0;
#X connect 29 0 15 0;
#X connect 30 0 29 1;
#X connect 31 2 27 0;
#X connect 31 3 28 0;
#X connect 34 0 32 0;
#X connect 35 0 31 0;
#X connect 36 0 35 1;
