#N canvas 0 23 840 1005 12;
#X obj 164 56 adc~;
#X floatatom 46 300 5 0 0 0 - - -;
#X floatatom 136 299 5 0 0 0 - - -;
#X obj 164 161 fiddle~;
#X obj 41 375 vsl 15 128 46 80 0 0 empty empty Pitch 0 -9 0 10 -262144
-1 -1 3435 1;
#X obj 109 375 vsl 15 128 30 100 0 0 empty empty Volumn 0 -9 0 10 -262144
-1 -1 9030 1;
#X obj 164 91 *~;
#X obj 277 99 tgl 15 0 empty empty empty 17 7 0 10 -262144 -1 -1 1
1;
#X obj 412 343 tgl 15 0 empty empty empty 17 7 0 10 -262144 -1 -1 0
1;
#X obj 444 414 bng 15 250 50 0 empty empty empty 17 7 0 10 -262144
-1 -1;
#X obj 255 324 list;
#X obj 179 426 print;
#X obj 77 223 unpack;
#X text 408 508 define a text object and write to the object with each
bang;
#X obj 412 384 metro;
#X floatatom 467 333 5 0 0 0 - - -;
#X text 504 343 frequency of file writing;
#X text 242 79 audio on/off;
#X obj 413 485 text define test_object;
#X obj 411 534 text set test_object;
#X msg 412 436 write -c test;
#X connect 0 0 6 0;
#X connect 1 0 4 0;
#X connect 2 0 5 0;
#X connect 3 2 12 0;
#X connect 3 3 2 0;
#X connect 3 3 10 1;
#X connect 6 0 3 0;
#X connect 7 0 6 1;
#X connect 8 0 14 0;
#X connect 10 0 19 0;
#X connect 12 0 1 0;
#X connect 12 0 10 0;
#X connect 14 0 9 0;
#X connect 14 0 20 0;
#X connect 15 0 14 1;
#X connect 20 0 18 0;
#X coords 0 0 1 1 85 60 0;
